<?xml version="1.0" encoding="UTF-8" standalone="no"?>
<!DOCTYPE svg PUBLIC "-//W3C//DTD SVG 1.1//EN" "http://www.w3.org/Graphics/SVG/1.1/DTD/svg11.dtd">
<svg xmlns="http://www.w3.org/2000/svg" xmlns:xlink="http://www.w3.org/1999/xlink" version="1.1" width="160.8343pt" height="160.8343pt" viewBox="0 0 160.8343 160.8343">
<g enable-background="new">
<g id="Layer-1" data-name="Layer 1">
<path transform="matrix(1,0,0,-1,1,159.8343)" d="M 79.4171 1.4173 C 122.4952 1.4173 157.4169 36.339 157.4169 79.4171 C 157.4169 122.4952 122.4952 157.4169 79.4171 157.4169 C 36.339 157.4169 1.4173 122.4952 1.4173 79.4171 C 1.4173 36.339 36.339 1.4173 79.4171 1.4173 Z " fill="#373435" fill-rule="evenodd"/>
<path transform="matrix(1,0,0,-1,1,159.8343)" stroke-width="2.8346" stroke-linecap="butt" stroke-miterlimit="22.925585" stroke-linejoin="miter" fill="none" stroke="#373435" d="M 79.4171 1.4173 C 122.4952 1.4173 157.4169 36.339 157.4169 79.4171 C 157.4169 122.4952 122.4952 157.4169 79.4171 157.4169 C 36.339 157.4169 1.4173 122.4952 1.4173 79.4171 C 1.4173 36.339 36.339 1.4173 79.4171 1.4173 Z "/>
<path transform="matrix(1,0,0,-1,1,159.8343)" d="M 79.4171 8.9169 C 118.3533 8.9169 149.9173 40.481 149.9173 79.4171 C 149.9173 118.3533 118.3533 149.9173 79.4171 149.9173 C 40.481 149.9173 8.9169 118.3533 8.9169 79.4171 C 8.9169 40.481 40.481 8.9169 79.4171 8.9169 Z " fill="#373435" fill-rule="evenodd"/>
<path transform="matrix(1,0,0,-1,1,159.8343)" stroke-width="2.8346" stroke-linecap="butt" stroke-miterlimit="22.925585" stroke-linejoin="miter" fill="none" stroke="#f58634" d="M 79.4171 8.9169 C 118.3533 8.9169 149.9173 40.481 149.9173 79.4171 C 149.9173 118.3533 118.3533 149.9173 79.4171 149.9173 C 40.481 149.9173 8.9169 118.3533 8.9169 79.4171 C 8.9169 40.481 40.481 8.9169 79.4171 8.9169 Z "/>
<path transform="matrix(1,0,0,-1,1,159.8343)" d="M 81.4657 103.3566 L 77.4391 103.3566 L 77.4391 94.1009 C 77.3453 94.0586 77.2534 94.013 77.1633 93.964 C 76.5105 93.6099 75.9492 93.0841 75.5666 92.376 C 75.1876 91.6756 75.0027 90.6837 74.9149 89.5467 C 74.8672 88.9279 74.8466 88.2703 74.838 87.5959 C 74.8335 87.5631 74.8315 87.5296 74.8315 87.4956 L 74.8315 86.4125 L 74.8315 86.3563 L 74.8315 86.3005 L 74.8315 86.2444 L 74.8315 86.1883 L 74.8315 86.1324 L 74.8315 86.0763 L 74.8315 71.9388 C 74.8315 71.5147 75.1757 71.1706 75.5997 71.1706 C 76.0241 71.1706 76.3682 71.5147 76.3682 71.9388 L 76.3682 86.0763 L 76.3682 86.1316 L 76.3682 86.1866 L 76.3682 86.2421 L 76.3682 86.2971 L 76.3682 86.3524 L 76.3682 86.4077 C 76.3688 87.4743 76.3756 88.5277 76.4453 89.4328 C 76.5179 90.3739 76.6542 91.1636 76.9173 91.65 C 77.1466 92.0741 77.491 92.3939 77.8958 92.6133 C 78.3598 92.865 78.9041 92.9869 79.4526 92.9869 C 80.0011 92.9869 80.545 92.865 81.0094 92.6133 C 81.4139 92.3939 81.7583 92.0744 81.9879 91.65 C 82.2506 91.1636 82.3873 90.3739 82.4596 89.4328 C 82.5259 88.5747 82.5352 87.5829 82.5367 86.5729 L 82.5367 86.5179 L 82.5367 86.4629 L 82.5367 71.9388 C 82.5367 71.5147 82.8808 71.1706 83.3051 71.1706 C 83.7292 71.1706 84.0733 71.5147 84.0733 71.9388 L 84.0733 86.0763 L 84.0736 86.0763 L 84.0733 86.4686 L 84.0733 86.5244 L 84.0733 87.4261 C 84.0733 87.4573 84.0713 87.4877 84.0679 87.518 C 84.0597 88.2193 84.0396 88.9041 83.9903 89.5467 C 83.9024 90.6837 83.7173 91.6756 83.3386 92.376 C 82.9553 93.0841 82.3944 93.6099 81.7415 93.964 C 81.6514 94.013 81.5593 94.0586 81.4657 94.1012 Z " fill="#f58634"/>
<path transform="matrix(1,0,0,-1,1,159.8343)" d="M 61.9676 96.6728 L 64.4953 96.6728 L 64.4953 99.6831 L 75.6729 99.6831 L 75.6729 103.3566 L 64.4953 103.3566 L 61.9676 103.3566 L 61.9676 99.6831 Z M 96.8664 103.3566 L 94.339 103.3566 L 83.2317 103.3566 L 83.2317 99.6831 L 94.339 99.6831 L 94.339 96.6728 L 96.8664 96.6728 L 96.8664 99.6831 Z " fill="#fefefe"/>
<path transform="matrix(1,0,0,-1,1,159.8343)" d="M 79.452 91.8604 L 79.4529 91.8604 C 80.5603 91.8604 81.466 90.9547 81.466 89.8472 L 81.466 56.1427 C 81.466 55.0352 80.5603 54.1293 79.4529 54.1293 L 79.452 54.1293 C 78.3445 54.1293 77.4388 55.0352 77.4388 56.1427 L 77.4388 89.8472 C 77.4388 90.9547 78.3445 91.8604 79.452 91.8604 " fill="#fefefe" fill-rule="evenodd"/>
<path transform="matrix(1,0,0,-1,1,159.8343)" d="M 31.9717 91.7203 C 31.9717 96.4414 36.2937 99.7659 42.0786 99.8991 L 42.0786 103.3569 C 34.2323 103.1573 27.9156 98.6357 27.9156 91.5211 C 27.9156 83.4752 35.1632 81.4141 42.0786 79.486 L 42.0786 83.7414 C 36.6262 85.2707 31.9717 86.9329 31.9717 91.7203 Z M 55.0446 94.3138 L 57.5714 97.1065 C 54.3798 100.7634 49.7251 103.0243 43.7409 103.2902 L 43.7409 99.8325 C 48.1292 99.5666 52.1189 97.7715 55.0446 94.3138 Z M 58.5689 70.0438 C 58.5689 78.954 50.8555 81.2812 43.7409 83.2759 L 43.7409 79.0203 C 49.4592 77.358 54.5791 75.4963 54.5791 69.7779 C 54.5791 66.0543 52.1189 61.2003 43.7409 60.9344 L 43.7409 57.4767 C 54.978 57.8092 58.5689 64.4584 58.5689 70.0438 Z M 29.046 67.3841 L 26.5859 64.525 C 29.8437 60.6019 35.0969 57.6763 42.0786 57.4767 L 42.0786 60.9344 C 36.1607 61.2003 31.7721 64.2589 29.046 67.3841 " fill="#fefefe"/>
<path transform="matrix(1,0,0,-1,1,159.8343)" d="M 105.6515 91.7203 C 105.6515 96.4414 109.9735 99.7659 115.7584 99.8991 L 115.7584 103.3569 C 107.9121 103.1573 101.5954 98.6357 101.5954 91.5211 C 101.5954 83.4752 108.8433 81.4141 115.7584 79.486 L 115.7584 83.7414 C 110.306 85.2707 105.6515 86.9329 105.6515 91.7203 Z M 128.7244 94.3138 L 131.2512 97.1065 C 128.0597 100.7634 123.4052 103.0243 117.4207 103.2902 L 117.4207 99.8325 C 121.8093 99.5666 125.7987 97.7715 128.7244 94.3138 Z M 132.2487 70.0438 C 132.2487 78.954 124.5353 81.2812 117.4207 83.2759 L 117.4207 79.0203 C 123.139 77.358 128.2589 75.4963 128.2589 69.7779 C 128.2589 66.0543 125.7987 61.2003 117.4207 60.9344 L 117.4207 57.4767 C 128.6578 57.8092 132.2487 64.4584 132.2487 70.0438 Z M 102.7259 67.3841 L 100.2657 64.525 C 103.5235 60.6019 108.7767 57.6763 115.7584 57.4767 L 115.7584 60.9344 C 109.8405 61.2003 105.4519 64.2589 102.7259 67.3841 " fill="#fefefe"/>
</g>
</g>
</svg>
