<svg width="304" height="98" viewBox="0 0 304 98" fill="none" xmlns="http://www.w3.org/2000/svg">
<path fill-rule="evenodd" clip-rule="evenodd" d="M18.8801 77.1176H284.857C294.318 77.1176 302.059 69.3764 302.059 59.915V19.3563C302.059 9.89491 294.318 2.15382 284.857 2.15382H18.8801C9.41886 2.15382 1.67783 9.89491 1.67783 19.3563V59.915C1.67783 69.3764 9.41886 77.1176 18.8801 77.1176Z" fill="#373435"/>
<path d="M18.8801 77.1176H284.857C294.318 77.1176 302.059 69.3764 302.059 59.915V19.3563C302.059 9.89491 294.318 2.15382 284.857 2.15382H18.8801C9.41886 2.15382 1.67783 9.89491 1.67783 19.3563V59.915C1.67783 69.3764 9.41886 77.1176 18.8801 77.1176Z" stroke="#373435" stroke-width="2.8346" stroke-miterlimit="22.9256"/>
<path d="M21.0025 73.1956H282.734C291.206 73.1956 298.137 66.2644 298.137 57.793V21.4783C298.137 13.0069 291.206 6.07572 282.734 6.07572H21.0025C12.5312 6.07572 5.59991 13.0069 5.59991 21.4783V57.793C5.59991 66.2644 12.5312 73.1956 21.0025 73.1956Z" stroke="#F58634" stroke-width="2.8346" stroke-miterlimit="22.9256"/>
<path d="M12.874 94.2674C12.2799 95.2044 11.4976 95.9197 10.5272 96.4134C9.56089 96.9071 8.45652 97.1538 7.22244 97.1538C5.38609 97.1538 3.87187 96.6351 2.67962 95.5935C1.49169 94.552 0.897614 93.23 0.897614 91.632C0.897614 90.0299 1.49169 88.7081 2.67962 87.658C3.87187 86.6081 5.38609 86.0852 7.22244 86.0852C8.3687 86.0852 9.40605 86.2986 10.339 86.7293C11.2717 87.1561 12.0206 87.7627 12.5936 88.5449L11.2927 89.4485C10.8618 88.8545 10.293 88.3944 9.58596 88.0722C8.87899 87.7501 8.09261 87.5912 7.22664 87.5912C5.88387 87.5912 4.77541 87.9718 3.89694 88.7373C3.01847 89.4987 2.57923 90.4566 2.57923 91.6069C2.57923 92.7574 3.01847 93.7153 3.90103 94.4767C4.78371 95.242 5.89234 95.6228 7.22664 95.6228C8.15531 95.6228 8.97938 95.4388 9.69061 95.0748C10.4017 94.7067 11.025 94.1378 11.5646 93.3639L12.874 94.2674ZM30.8014 86.3865H32.4328V93.0878C32.4328 94.0917 32.6713 94.7694 33.1439 95.1208C33.6165 95.4722 34.5578 95.6479 35.9675 95.6479C37.3814 95.6479 38.3269 95.4722 38.7995 95.1208C39.2722 94.7694 39.5106 94.0917 39.5106 93.0878V86.3865H41.1421V93.5144C41.1421 94.7987 40.7362 95.7232 39.9248 96.2962C39.109 96.8694 37.7872 97.1538 35.9465 97.1538C34.1185 97.1538 32.8008 96.8735 32.0019 96.3088C31.2029 95.744 30.8014 94.8154 30.8014 93.5144V86.3865ZM58.9817 95.489L59.7766 94.1168C60.496 94.5979 61.2824 94.9744 62.1317 95.242C62.985 95.514 63.7966 95.6479 64.5746 95.6479C65.5073 95.6479 66.2604 95.4596 66.8335 95.0789C67.4066 94.6983 67.691 94.2132 67.691 93.6191C67.691 93.0209 67.4274 92.5817 66.9046 92.2888C66.3818 92.0002 65.5575 91.8413 64.4281 91.8077C62.5207 91.7826 61.2113 91.5609 60.5002 91.1468C59.7892 90.7284 59.4335 90.0384 59.4335 89.0762C59.4335 88.1768 59.8226 87.4531 60.6047 86.905C61.387 86.3571 62.437 86.0852 63.7547 86.0852C64.654 86.0852 65.5242 86.2107 66.3733 86.4658C67.2183 86.7168 68.0341 87.0933 68.8204 87.5912L67.9964 88.9465C67.3439 88.5073 66.641 88.1685 65.8881 87.9258C65.1351 87.6873 64.4155 87.5661 63.7295 87.5661C62.9349 87.5661 62.2948 87.7042 61.8137 87.9802C61.3326 88.2604 61.0901 88.6203 61.0901 89.0678C61.0901 89.5322 61.3326 89.8627 61.8179 90.0592C62.3031 90.2558 63.1482 90.3521 64.3487 90.3521C66.0178 90.3521 67.2727 90.6323 68.1219 91.197C68.971 91.7618 69.3977 92.5983 69.3977 93.7112C69.3977 94.6983 68.9668 95.5181 68.1051 96.175C67.2434 96.8275 66.1265 97.1538 64.7544 97.1538C63.738 97.1538 62.7341 97.0074 61.7301 96.7189C60.7302 96.4302 59.8142 96.0201 58.9817 95.489ZM89.9481 96.8275V87.8171H85.5307V86.3613H95.9969V87.8171H91.5796V96.8275H89.9481ZM118.271 95.6228C119.668 95.6228 120.81 95.2463 121.692 94.4893C122.575 93.7362 123.014 92.774 123.014 91.6069C123.014 90.4483 122.571 89.4903 121.684 88.729C120.797 87.9718 119.66 87.5912 118.271 87.5912C116.882 87.5912 115.748 87.9677 114.87 88.7247C113.991 89.4777 113.552 90.44 113.552 91.6069C113.552 92.774 113.991 93.7362 114.87 94.4893C115.748 95.2463 116.882 95.6228 118.271 95.6228ZM118.271 97.1538C116.409 97.1538 114.874 96.6268 113.673 95.5726C112.473 94.5226 111.871 93.2007 111.871 91.6069C111.871 90.009 112.469 88.6871 113.665 87.6455C114.866 86.6039 116.401 86.0852 118.271 86.0852C120.157 86.0852 121.701 86.6039 122.901 87.6414C124.098 88.6788 124.696 90.0007 124.696 91.6069C124.696 93.2092 124.094 94.531 122.893 95.5809C121.692 96.631 120.153 97.1538 118.271 97.1538ZM142.506 96.8275V86.3613H143.866L148.149 92.4854L152.441 86.3613H153.801V96.8275H152.169V89.302L148.149 95.1208L144.138 89.302V96.8275H142.506ZM195.651 87.8924H190.908V90.3521H195.677C196.2 90.3521 196.593 90.2475 196.86 90.0384C197.124 89.8333 197.258 89.5239 197.258 89.1138C197.258 88.7081 197.124 88.4027 196.86 88.1977C196.593 87.9928 196.191 87.8924 195.651 87.8924ZM196.204 91.883H190.908V95.3216H196.204C196.777 95.3216 197.22 95.171 197.538 94.8656C197.852 94.5645 198.011 94.1378 198.011 93.5898C198.011 93.0501 197.852 92.6319 197.538 92.3307C197.22 92.0336 196.777 91.883 196.204 91.883ZM189.276 96.8275V86.3865H195.702C196.764 86.3865 197.572 86.6039 198.12 87.0431C198.668 87.4783 198.939 88.1224 198.939 88.9674C198.939 89.3941 198.856 89.7706 198.684 90.1011C198.513 90.4315 198.262 90.6993 197.936 90.9041C198.517 91.2304 198.956 91.6279 199.249 92.1006C199.546 92.5692 199.692 93.1003 199.692 93.686C199.692 94.6607 199.366 95.4262 198.718 95.9867C198.065 96.5472 197.166 96.8275 196.02 96.8275H189.276ZM218.08 96.8275V86.3363H219.737V96.8275H218.08ZM238.526 96.8275V86.3865H240.157V91.0296L245.704 86.3865H247.863L243.47 90.1011L248.515 96.8275H246.679L242.316 91.0547L240.157 92.8829V96.8275H238.526ZM265.577 96.8275V86.3613H275.39V87.8924H267.208V90.5027H272.579V92.0085H267.208V95.3216H275.842V96.8275H265.577ZM292.423 95.489L293.218 94.1168C293.937 94.5979 294.723 94.9744 295.573 95.242C296.426 95.514 297.238 95.6479 298.016 95.6479C298.948 95.6479 299.701 95.4596 300.274 95.0789C300.847 94.6983 301.132 94.2132 301.132 93.6191C301.132 93.0209 300.868 92.5817 300.346 92.2888C299.823 92.0002 298.998 91.8413 297.869 91.8077C295.962 91.7826 294.652 91.5609 293.941 91.1468C293.23 90.7284 292.874 90.0384 292.874 89.0762C292.874 88.1768 293.264 87.4531 294.046 86.905C294.828 86.3571 295.878 86.0852 297.196 86.0852C298.095 86.0852 298.965 86.2107 299.814 86.4658C300.659 86.7168 301.475 87.0933 302.261 87.5912L301.437 88.9465C300.785 88.5073 300.082 88.1685 299.329 87.9258C298.576 87.6873 297.856 87.5661 297.17 87.5661C296.376 87.5661 295.736 87.7042 295.255 87.9802C294.774 88.2604 294.531 88.6203 294.531 89.0678C294.531 89.5322 294.774 89.8627 295.259 90.0592C295.744 90.2558 296.589 90.3521 297.79 90.3521C299.459 90.3521 300.714 90.6323 301.563 91.197C302.412 91.7618 302.839 92.5983 302.839 93.7112C302.839 94.6983 302.408 95.5181 301.546 96.175C300.684 96.8275 299.567 97.1538 298.195 97.1538C297.179 97.1538 296.175 97.0074 295.171 96.7189C294.171 96.4302 293.255 96.0201 292.423 95.489Z" fill="#F58634"/>
<path d="M62.9187 63.0086L82.1743 14.9055H77.8472L58.1588 63.0086H62.9187ZM102.656 63.0086L83.6887 15.9873L81.453 21.7567L97.8961 63.0086H102.656ZM89.1699 46.1329H71.6451L70.1305 50.0994H90.7564L89.1699 46.1329Z" fill="#FEFEFE"/>
<path d="M114.814 14.9055H109.622L143.59 63.0086H149.287L114.814 14.9055ZM144.888 14.9055V53.8495L148.998 59.3305V14.9055H144.888ZM114.093 63.0086V24.9299L109.982 19.0162V63.0086H114.093Z" fill="#FEFEFE"/>
<path d="M198.845 38.9931C198.845 52.8399 207.715 63.4413 221.49 63.8019V60.1238C210.239 59.7631 203.172 50.8928 203.172 38.9931C203.172 27.0936 210.239 18.2229 221.49 17.8623V14.1842C207.715 14.5448 198.845 25.2184 198.845 38.9931ZM245.577 38.9931C245.577 25.2905 236.707 14.6891 223.293 14.1842V17.9343C234.183 18.4393 241.251 27.2376 241.251 38.9931C241.251 50.7483 234.183 59.547 223.293 60.1238V63.8019C236.707 63.2971 245.577 52.6955 245.577 38.9931Z" fill="#FEFEFE"/>
<path d="M258.385 26.733C258.385 21.6124 263.073 18.0066 269.347 17.8623V14.1122C260.837 14.3285 253.986 19.2326 253.986 26.9491C253.986 35.6756 261.847 37.9114 269.347 40.0027V35.3871C263.434 33.7286 258.385 31.9255 258.385 26.733ZM283.41 23.9202L286.151 20.8913C282.689 16.9248 277.641 14.4727 271.15 14.1842V17.9343C275.91 18.2229 280.237 20.17 283.41 23.9202ZM287.233 50.2436C287.233 40.5797 278.867 38.0555 271.15 35.8919V40.5077C277.352 42.3106 282.906 44.3298 282.906 50.5321C282.906 54.5706 280.237 59.8355 271.15 60.1238V63.8739C283.338 63.5134 287.233 56.3015 287.233 50.2436ZM255.212 53.1285L252.544 56.2295C256.077 60.4844 261.775 63.6578 269.347 63.8739V60.1238C262.929 59.8355 258.169 56.518 255.212 53.1285Z" fill="#FEFEFE"/>
<path d="M176.157 14.9055H172.047V24.354C171.951 24.3972 171.857 24.4439 171.765 24.4938C171.099 24.8552 170.526 25.3922 170.135 26.1149C169.748 26.8301 169.559 27.8427 169.47 29.0032C169.421 29.6351 169.4 30.3065 169.391 30.9948C169.387 31.0284 169.385 31.0626 169.385 31.0972V32.203V32.2601V32.3174V32.3746V32.4317V32.489V32.5462V46.9784C169.385 47.4116 169.736 47.7627 170.169 47.7627C170.602 47.7627 170.953 47.4116 170.953 46.9784V32.5462V32.4898V32.4335V32.377V32.3207V32.2643V32.2079C170.954 31.1189 170.961 30.0437 171.032 29.1196C171.106 28.1589 171.245 27.3526 171.514 26.8563C171.748 26.4231 172.1 26.0967 172.513 25.8727C172.986 25.6157 173.542 25.4915 174.102 25.4915C174.662 25.4915 175.217 25.6157 175.691 25.8727C176.104 26.0968 176.456 26.423 176.69 26.8563C176.959 27.3526 177.098 28.1589 177.172 29.1196C177.239 29.9957 177.249 31.0081 177.25 32.0391V32.0954V32.1516V46.9784C177.25 47.4116 177.602 47.7627 178.035 47.7627C178.468 47.7627 178.819 47.4116 178.819 46.9784V32.5462H178.819L178.819 32.1457V32.0886V31.168C178.819 31.1363 178.817 31.1052 178.814 31.0745C178.805 30.3584 178.785 29.6594 178.734 29.0032C178.645 27.8427 178.456 26.8301 178.069 26.1149C177.678 25.3922 177.105 24.8554 176.439 24.4938C176.347 24.4438 176.253 24.3972 176.157 24.3539V14.9055Z" fill="#F58634"/>
<path d="M156.253 21.7287H158.833V18.6556H170.243V14.9055H158.833H156.253V18.6556V21.7287ZM191.879 14.9055H189.299H177.96V18.6556H189.299V21.7287H191.879V18.6556V14.9055Z" fill="#FEFEFE"/>
<path fill-rule="evenodd" clip-rule="evenodd" d="M174.102 26.6415C175.232 26.6415 176.157 27.5662 176.157 28.6968V63.1041C176.157 64.2347 175.232 65.1593 174.102 65.1593C172.971 65.1593 172.047 64.2347 172.047 63.1041V28.6968C172.047 27.5662 172.971 26.6415 174.102 26.6415Z" fill="#FEFEFE"/>
<path d="M22.3458 27.3758C22.3458 22.2553 27.0334 18.6494 33.3077 18.5052V14.7551C24.7977 14.9713 17.9466 19.8754 17.9466 27.592C17.9466 36.3185 25.8075 38.5542 33.3077 40.6456V36.03C27.394 34.3714 22.3458 32.5684 22.3458 27.3758ZM47.3708 24.563L50.1114 21.5342C46.6498 17.5677 41.6014 15.1155 35.1108 14.8271V18.5772C39.8703 18.8658 44.1976 20.8129 47.3708 24.563ZM51.1932 50.8865C51.1932 41.2225 42.8273 38.6984 35.1108 36.5348V41.1505C41.3128 42.9535 46.8659 44.9727 46.8659 51.175C46.8659 55.2135 44.1976 60.4783 35.1108 60.7666V64.5167C47.2986 64.1563 51.1932 56.9443 51.1932 50.8865ZM19.1725 53.7713L16.5041 56.8723C20.0378 61.1273 25.7353 64.3006 33.3077 64.5167V60.7666C26.8892 60.4783 22.1293 57.1608 19.1725 53.7713Z" fill="#FEFEFE"/>
</svg>
